<svg width="24" height="24" viewBox="0 0 24 24" fill="none" xmlns="http://www.w3.org/2000/svg">
  <path d="M22.2819 9.8211C22.5502 9.14015 22.5502 8.38191 22.2819 7.70096L20.1371 3.03191C19.8688 2.35096 19.3558 1.78957 18.7012 1.45094L14.0322 -0.693809C13.3775 -1.03244 12.6193 -1.03244 11.9646 -0.693809L7.29553 1.45094C6.64087 1.78957 6.12789 2.35096 5.85957 3.03191L3.71479 7.70096C3.44648 8.38191 3.44648 9.14015 3.71479 9.8211L5.85957 14.4902C6.12789 15.1711 6.64087 15.7325 7.29553 16.0711L11.9646 18.2159C12.6193 18.5545 13.3775 18.5545 14.0322 18.2159L18.7012 16.0711C19.3558 15.7325 19.8688 15.1711 20.1371 14.4902L22.2819 9.8211Z" fill="#00A67E"/>
  <path d="M12 16C14.2091 16 16 14.2091 16 12C16 9.79086 14.2091 8 12 8C9.79086 8 8 9.79086 8 12C8 14.2091 9.79086 16 12 16Z" fill="white"/>
</svg> 